# xmcd
#
# Track frame offsets:
#	150
#	14884
#	36977
#	57946
#	74794
#	91065
#	110162
#	128693
#	139302
#	153900
#	172751
#	185073
#
# Disc length: 2680 seconds
#
# Revision: 1
# Processed by: cddbd v1.5.2PL0 Copyright (c) Steve Scherf et al.
# Submitted via: EasyCDDAExtractor 16.0.6.1
#
DISCID=af0a760c
DTITLE=Magic Sam Blues Band - West Side Soul
DYEAR=2011
DGENRE=Blues
TTITLE0=That’s All I Need
TTITLE1=I Need You So Bad
TTITLE2=Feelin’ Good
TTITLE3=All Your Love
TTITLE4=Don't Want No Woman
TTITLE5=Sweet Home Chicago
TTITLE6=I Found Me a New Love
TTITLE7=Every Night, Every Day
TTITLE8=Lookin’ Good
TTITLE9=My Love Will Never Die
TTITLE10=Mama Talk to Your Daughter
TTITLE11=Don’t Want No Woman (alternate take)
EXTD=
EXTT0=
EXTT1=
EXTT2=
EXTT3=
EXTT4=
EXTT5=
EXTT6=
EXTT7=
EXTT8=
EXTT9=
EXTT10=
EXTT11=
PLAYORDER=
